# xmcd
#
# Track frame offsets:
#	150
#	21872
#	38791
#	54975
#	68784
#	102714
#	130322
#	148725
#	179303
#	200283
#	226486
#	244779
#	265134
#	283927
#	301635
#	320428
#	340553
#
# Disc length: 4847 seconds
#
# Revision: 0
# Processed by: cddbd v1.5.2PL0 Copyright (c) Steve Scherf et al.
# Submitted via: EasyCDDAExtractor 16.0.6.1
#
DISCID=f512ed11
DTITLE=Celine Dion - All The Way... A Decade Of Song
DYEAR=1999
DGENRE=Pop
TTITLE0=The Power Of Love
TTITLE1=Beauty And The Beast
TTITLE2=Because You Loved Me
TTITLE3=It's All Coming Back To Me Now
TTITLE4=All By Myself (Single Version)
TTITLE5=Immortality
TTITLE6=To Love You More
TTITLE7=My Heart Will Go On
TTITLE8=Be The Man (On This Night)
TTITLE9=I'm Your Angel
TTITLE10=That's The Way It Is
TTITLE11=If Walls Could Talk
TTITLE12=The First Time Ever I Saw Your Face
TTITLE13=All The Way
TTITLE14=Then You Look At Me
TTITLE15=I Want You To Need Me
TTITLE16=Live For The One I Love
EXTD=
EXTT0=
EXTT1=
EXTT2=
EXTT3=
EXTT4=
EXTT5=
EXTT6=
EXTT7=
EXTT8=
EXTT9=
EXTT10=
EXTT11=
EXTT12=
EXTT13=
EXTT14=
EXTT15=
EXTT16=
PLAYORDER=
